<svg xmlns="http://www.w3.org/2000/svg" viewBox="0 0 1975.2 708" width="1975.2" height="708" style="background-color: transparent;"><defs><style>@import url('https://fonts.googleapis.com/css2?family=Caveat+Brush&amp;family=Source+Code+Pro&amp;family=Source+Sans+Pro&amp;family=Crimson+Pro&amp;display=block');</style></defs><g text-align="center" text-anchor="middle" transform="translate(16.00, 251.37) rotate(0.00, 113.00, 74.50)"><g id="f8f62d5e-19d7-4762-28d3-0f5ae26ac310_svg" class="tl-centered-g"><path d="M87.93,0.26 Q100.34,0.31 108.13,0.28 T124.11,0.16 140.60,-0.00 157.22,-0.17 173.87,-0.33 190.53,-0.50 207.22,-0.66 219.73,1.13 225.00,10.21 226.31,25.78 226.50,42.75 226.47,60.09 226.55,77.52 226.77,94.98 227.00,112.45 227.21,129.94 225.46,142.95 216.67,148.36 201.76,149.69 185.52,149.88 168.96,149.84 152.30,149.74 135.62,149.62 118.94,149.55 102.25,149.58 85.56,149.66 68.87,149.74 52.19,149.82 35.50,149.90 18.79,149.97 6.26,148.13 1.00,139.08 -0.27,123.63 -0.42,106.79 -0.36,89.60 -0.39,72.30 -0.58,54.98 -0.76,37.66 -0.93,20.31 0.84,7.38 9.63,1.97 24.52,0.57 40.73,0.30 57.27,0.25 73.90,0.27 90.56,0.30 107.22,0.28 123.88,0.17 143.39,-0.01 154.78,-0.07 155.16,0.05 155.47,0.29 155.70,0.62 155.81,1.01 155.79,1.40 155.64,1.78 155.38,2.08 155.04,2.29 154.65,2.38 154.26,2.33 153.89,2.17 153.60,1.89 153.41,1.54 153.35,1.15 153.41,0.76 153.60,0.40 153.89,0.13 154.25,-0.04 154.64,-0.09 155.03,-0.00 155.38,0.20 155.64,0.50 155.79,0.87 155.81,1.27 155.70,1.66 155.48,1.99 155.16,2.23 154.79,2.36 154.59,2.39 143.40,2.39 123.89,2.37 107.23,2.38 90.57,2.50 73.91,2.67 57.29,2.85 40.79,3.10 24.79,3.55 10.74,4.63 3.38,8.55 2.19,20.35 2.05,37.66 1.91,54.98 1.77,72.30 1.81,89.58 2.06,106.74 2.53,123.39 3.61,138.01 7.44,145.61 18.84,146.78 35.50,146.90 52.19,147.02 68.88,147.14 85.56,147.26 102.25,147.38 118.94,147.45 135.62,147.42 152.30,147.34 168.95,147.24 185.47,147.08 201.50,146.71 215.57,145.70 222.93,141.79 224.08,129.90 224.18,112.46 224.29,94.99 224.39,77.53 224.31,60.10 224.02,42.80 223.51,26.02 222.40,11.29 218.56,3.65 207.18,2.53 190.54,2.50 173.88,2.47 157.23,2.43 140.61,2.40 124.12,2.36 108.14,2.38 94.14,2.48 87.80,2.54 87.53,2.48 87.29,2.35 87.08,2.17 86.92,1.94 86.82,1.68 86.79,1.41 86.82,1.14 86.92,0.88 87.07,0.65 87.28,0.47 87.52,0.34 87.79,0.27 Z" fill="#cecece" stroke="#cecece" stroke-width="2" pointer-events="none"/></g><text font-size="28px" font-family="Caveat Brush" font-weight="normal" line-height="28px" letter-spacing="-0.03em" text-align="center" dominant-baseline="mathematical" alignment-baseline="mathematical" text-anchor="middle" transform="translate(81.5, 55.5)" fill="#cecece" transform-origin="center center"><tspan y="14px" x="35.5">Client
</tspan></text></g><g id="7637381e-ae34-44a7-2735-d6a284bb92ad_svg" class="tl-centered-g" transform="translate(1378.78, 106.46) rotate(0.00, 122.00, 27.00)"><rect x="2.11" y="2.11" width="241.88" height="51.88" fill="#594d42" pointer-events="none"/><g pointer-events="none" stroke="#eb8b35" stroke-width="4.23" stroke-linecap="round"><line x1="2.11" y1="2.11" x2="241.88" y2="2.11" stroke-dasharray="none" stroke-dashoffset="none"/><line x1="241.88" y1="2.11" x2="241.88" y2="51.88" stroke-dasharray="none" stroke-dashoffset="none"/><line x1="241.88" y1="51.88" x2="2.11" y2="51.88" stroke-dasharray="none" stroke-dashoffset="none"/><line x1="2.11" y1="51.88" x2="2.11" y2="2.11" stroke-dasharray="none" stroke-dashoffset="none"/></g></g><g text-align="center" text-anchor="middle" transform="translate(565.00, 103.37) rotate(0.00, 113.00, 74.50)"><g id="13025b67-5980-48a7-2ad8-ee97ec87e6ac_svg" class="tl-centered-g"><path d="M226.52,92.14 Q226.71,105.18 226.81,113.37 T227.01,130.18 225.24,143.03 216.44,148.38 201.53,149.66 185.30,149.79 168.74,149.70 152.09,149.55 135.41,149.38 118.72,149.26 102.04,149.23 85.35,149.26 68.67,149.29 51.98,149.32 35.29,149.34 18.58,149.37 6.06,147.49 0.83,138.45 -0.39,123.02 -0.48,106.22 -0.35,89.05 -0.32,71.80 -0.44,54.51 -0.55,37.22 -0.67,19.90 1.15,7.01 9.93,1.60 24.80,0.21 40.98,-0.05 57.49,-0.09 74.10,-0.06 90.72,-0.02 107.35,-0.03 123.98,-0.14 140.61,-0.29 157.24,-0.45 173.87,-0.60 190.50,-0.76 207.16,-0.91 219.65,0.88 224.92,9.98 226.20,25.57 226.38,42.58 226.33,59.95 226.39,77.42 226.61,97.90 226.69,109.86 226.55,110.26 226.30,110.60 225.95,110.84 225.54,110.95 225.12,110.93 224.72,110.77 224.40,110.50 224.18,110.14 224.09,109.72 224.13,109.30 224.31,108.92 224.60,108.61 224.97,108.41 225.39,108.34 225.81,108.41 226.18,108.61 226.48,108.91 226.65,109.30 226.70,109.72 226.61,110.13 226.39,110.49 226.07,110.77 225.68,110.93 225.26,110.95 224.85,110.84 224.50,110.60 224.24,110.26 224.11,109.86 224.07,109.65 224.12,97.91 224.23,77.42 224.17,59.96 223.89,42.63 223.40,25.81 222.31,11.06 218.48,3.40 207.12,2.28 190.51,2.24 173.88,2.20 157.25,2.15 140.62,2.11 123.99,2.06 107.36,2.07 90.73,2.18 74.11,2.34 57.52,2.51 41.05,2.75 25.08,3.19 11.05,4.26 3.69,8.17 2.46,19.96 2.26,37.23 2.05,54.52 1.85,71.80 1.82,89.05 2.01,106.18 2.41,122.79 3.44,137.38 7.25,144.98 18.65,146.18 35.31,146.34 51.99,146.52 68.68,146.69 85.36,146.86 102.05,147.03 118.73,147.16 135.42,147.18 152.09,147.15 168.74,147.10 185.26,146.99 201.28,146.67 215.36,145.71 222.72,141.86 223.88,130.14 224.00,113.37 224.13,98.67 224.21,92.01 224.27,91.74 224.40,91.49 224.59,91.29 224.82,91.13 225.08,91.03 225.35,90.99 225.63,91.03 225.89,91.12 226.12,91.28 226.30,91.49 226.43,91.74 226.50,92.01 Z" fill="#cecece" stroke="#cecece" stroke-width="2" pointer-events="none"/></g><text font-size="28px" font-family="Caveat Brush" font-weight="normal" line-height="28px" letter-spacing="-0.03em" text-align="center" dominant-baseline="mathematical" alignment-baseline="mathematical" text-anchor="middle" transform="translate(88, 55.5)" fill="#cecece" transform-origin="center center"><tspan y="14px" x="29">DNS
</tspan></text></g><text font-size="28px" font-family="Caveat Brush" font-weight="normal" line-height="28px" letter-spacing="-0.03em" text-align="left" dominant-baseline="mathematical" alignment-baseline="mathematical" text-anchor="start" fill="#cecece" transform="translate(1390.28, 114.46) rotate(0.00, 114.00, 19.00)"><tspan y="14px" x="4">20 MB Cache per replica
</tspan></text><g text-align="center" text-anchor="middle" transform="translate(1086.00, 70.37) rotate(0.00, 113.00, 74.50)"><g id="eba99fb1-d52a-47ff-1d31-3286657b5469_svg" class="tl-centered-g"><path d="M225.68,92.04 Q225.83,105.10 225.91,113.30 T226.06,130.14 224.26,143.01 215.49,148.38 200.64,149.69 184.48,149.87 167.98,149.82 151.40,149.71 134.80,149.58 118.18,149.50 101.57,149.52 84.96,149.59 68.34,149.66 51.73,149.73 35.11,149.80 18.48,149.86 5.99,148.01 0.80,138.94 -0.32,123.47 -0.33,106.62 -0.10,89.40 0.02,72.08 -0.00,54.74 -0.02,37.39 -0.04,20.01 1.83,7.08 10.59,1.67 25.38,0.25 41.47,-0.04 57.88,-0.10 74.38,-0.10 90.90,-0.09 107.43,-0.12 123.96,-0.26 140.50,-0.44 157.03,-0.62 173.56,-0.80 190.09,-0.99 206.64,-1.16 219.08,0.61 224.31,9.73 225.55,25.34 225.68,42.38 225.58,59.78 225.59,77.28 225.75,97.81 225.80,109.78 225.66,110.18 225.40,110.52 225.05,110.76 224.65,110.87 224.22,110.85 223.83,110.69 223.51,110.42 223.29,110.05 223.20,109.64 223.25,109.22 223.42,108.84 223.71,108.53 224.09,108.33 224.51,108.26 224.92,108.33 225.30,108.53 225.59,108.84 225.77,109.22 225.81,109.64 225.72,110.06 225.50,110.42 225.18,110.69 224.79,110.85 224.36,110.87 223.96,110.76 223.61,110.52 223.35,110.18 223.22,109.78 223.18,109.57 223.27,97.81 223.43,77.28 223.42,59.79 223.19,42.42 222.75,25.58 221.70,10.79 217.90,3.12 206.61,2.03 190.10,2.01 173.57,2.00 157.04,1.98 140.51,1.96 123.98,1.94 107.44,1.98 90.92,2.11 74.40,2.30 57.90,2.50 41.54,2.76 25.66,3.23 11.71,4.32 4.37,8.26 3.09,20.08 2.79,37.41 2.48,54.76 2.19,72.10 2.06,89.40 2.16,106.59 2.48,123.26 3.42,137.90 7.18,145.51 18.53,146.67 35.12,146.80 51.73,146.93 68.35,147.06 84.96,147.19 101.57,147.32 118.19,147.40 134.80,147.38 151.40,147.31 167.98,147.22 184.43,147.07 200.38,146.71 214.39,145.72 221.74,141.84 222.93,130.09 223.10,113.30 223.27,98.57 223.37,91.90 223.43,91.63 223.56,91.38 223.75,91.17 223.98,91.01 224.24,90.92 224.51,90.88 224.79,90.92 225.05,91.01 225.28,91.17 225.46,91.38 225.59,91.63 225.66,91.90 Z" fill="#cecece" stroke="#cecece" stroke-width="2" pointer-events="none"/></g><text font-size="28px" font-family="Caveat Brush" font-weight="normal" line-height="28px" letter-spacing="-0.03em" text-align="center" dominant-baseline="mathematical" alignment-baseline="mathematical" text-anchor="middle" transform="translate(70.5, 55.5)" fill="#cecece" transform-origin="center center"><tspan y="14px" x="46.5">Replica1
</tspan></text></g><g text-align="center" text-anchor="middle" transform="translate(1086.00, 70.37) rotate(0.00, 113.00, 74.50)"><g id="25a191d9-f71d-4133-1b34-63fd9ab1a3ee_svg" class="tl-centered-g"><path d="M137.65,148.68 Q125.34,148.56 117.61,148.55 T101.76,148.58 85.40,148.66 68.91,148.74 52.40,148.82 35.87,148.90 19.32,148.98 6.89,147.14 1.67,138.08 0.43,122.63 0.31,105.78 0.41,88.58 0.41,71.27 0.25,53.95 0.10,36.61 -0.04,19.26 1.76,6.32 10.54,0.96 25.39,-0.32 41.56,-0.46 58.05,-0.37 74.63,-0.22 91.24,-0.05 107.85,0.07 124.47,0.09 141.09,0.07 157.70,0.04 174.32,0.01 190.93,-0.02 207.57,-0.04 220.05,1.84 225.24,10.88 226.35,26.26 226.34,43.03 226.10,60.15 225.97,77.37 225.98,94.61 225.99,111.86 225.99,129.13 224.11,142.00 215.34,147.37 200.55,148.69 184.47,148.88 168.06,148.84 151.56,148.74 135.04,148.62 118.52,148.55 101.99,148.58 82.63,148.66 71.34,148.66 70.96,148.54 70.64,148.29 70.42,147.96 70.31,147.58 70.33,147.18 70.48,146.81 70.74,146.51 71.08,146.30 71.47,146.22 71.87,146.26 72.23,146.43 72.52,146.70 72.71,147.05 72.77,147.45 72.71,147.84 72.52,148.20 72.23,148.47 71.87,148.64 71.47,148.68 71.08,148.59 70.74,148.39 70.48,148.08 70.33,147.71 70.31,147.31 70.42,146.93 70.64,146.60 70.96,146.36 71.34,146.23 71.54,146.20 82.63,146.26 101.99,146.38 118.52,146.45 135.05,146.42 151.56,146.34 168.05,146.24 184.42,146.08 200.29,145.71 214.24,144.71 221.58,140.82 222.87,129.06 223.18,111.84 223.49,94.59 223.81,77.35 223.94,60.14 223.86,43.05 223.55,26.48 222.62,11.92 218.86,4.34 207.51,3.15 190.92,2.98 174.30,2.81 157.69,2.64 141.07,2.47 124.46,2.29 107.85,2.17 91.23,2.15 74.63,2.18 58.05,2.23 41.60,2.34 25.64,2.66 11.63,3.62 4.28,7.50 3.09,19.30 2.92,36.62 2.74,53.95 2.57,71.27 2.57,88.57 2.80,105.74 3.23,122.39 4.28,137.02 8.07,144.62 19.37,145.79 35.87,145.90 52.40,146.02 68.92,146.14 85.40,146.26 101.76,146.38 117.61,146.45 131.50,146.42 137.79,146.39 138.06,146.46 138.30,146.59 138.51,146.77 138.67,147.00 138.76,147.26 138.80,147.53 138.76,147.80 138.66,148.06 138.51,148.29 138.30,148.47 138.06,148.60 137.79,148.66 Z" fill="#cecece" stroke="#cecece" stroke-width="2" pointer-events="none"/></g><text font-size="28px" font-family="Caveat Brush" font-weight="normal" line-height="28px" letter-spacing="-0.03em" text-align="center" dominant-baseline="mathematical" alignment-baseline="mathematical" text-anchor="middle" transform="translate(70.5, 55.5)" fill="#cecece" transform-origin="center center"><tspan y="14px" x="46.5">Replica1
</tspan></text></g><g text-align="center" text-anchor="middle" transform="translate(1084.00, 257.37) rotate(0.00, 113.00, 74.50)"><g id="b3d1cf8a-6612-4c53-360b-d5c5b145eabb_svg" class="tl-centered-g"><path d="M226.00,91.98 Q226.12,105.02 226.18,113.20 T226.30,130.01 224.47,142.86 215.69,148.20 200.82,149.48 184.65,149.63 168.14,149.54 151.54,149.39 134.92,149.23 118.30,149.12 101.67,149.10 85.04,149.14 68.41,149.17 51.78,149.20 35.15,149.24 18.50,149.27 6.01,147.40 0.79,138.37 -0.40,122.98 -0.48,106.22 -0.32,89.10 -0.28,71.88 -0.38,54.64 -0.47,37.39 -0.57,20.12 1.26,7.25 10.04,1.85 24.90,0.43 41.06,0.14 57.56,0.07 74.14,0.07 90.75,0.07 107.37,0.04 123.98,-0.10 140.60,-0.29 157.21,-0.48 173.83,-0.66 190.45,-0.85 207.09,-1.03 219.57,0.74 224.80,9.84 226.01,25.43 226.11,42.43 225.97,59.79 225.95,77.26 226.06,97.74 226.08,109.69 225.94,110.09 225.68,110.43 225.33,110.67 224.93,110.78 224.50,110.75 224.11,110.60 223.79,110.32 223.57,109.96 223.48,109.54 223.53,109.12 223.71,108.74 224.00,108.43 224.37,108.24 224.79,108.17 225.21,108.24 225.58,108.44 225.87,108.75 226.05,109.13 226.09,109.55 226.00,109.96 225.78,110.33 225.46,110.60 225.07,110.75 224.64,110.78 224.24,110.66 223.89,110.42 223.63,110.09 223.50,109.69 223.46,109.47 223.57,97.73 223.78,77.25 223.81,59.80 223.62,42.47 223.21,25.66 222.19,10.90 218.40,3.25 207.05,2.16 190.46,2.15 173.84,2.14 157.23,2.12 140.61,2.11 123.99,2.10 107.38,2.14 90.77,2.27 74.16,2.47 57.58,2.67 41.13,2.93 25.18,3.41 11.16,4.50 3.80,8.42 2.56,20.18 2.34,37.40 2.11,54.65 1.89,71.89 1.84,89.10 2.01,106.18 2.40,122.75 3.40,137.30 7.20,144.88 18.56,146.08 35.16,146.24 51.79,146.40 68.42,146.57 85.05,146.74 101.68,146.90 118.30,147.02 134.93,147.03 151.55,146.99 168.14,146.94 184.60,146.83 200.57,146.50 214.60,145.54 221.95,141.68 223.17,129.95 223.37,113.19 223.57,98.49 223.69,91.84 223.76,91.57 223.89,91.32 224.07,91.11 224.30,90.96 224.56,90.86 224.84,90.83 225.11,90.86 225.37,90.96 225.60,91.12 225.79,91.33 225.91,91.57 225.98,91.84 Z" fill="#cecece" stroke="#cecece" stroke-width="2" pointer-events="none"/></g><text font-size="28px" font-family="Caveat Brush" font-weight="normal" line-height="28px" letter-spacing="-0.03em" text-align="center" dominant-baseline="mathematical" alignment-baseline="mathematical" text-anchor="middle" transform="translate(69.5, 55.5)" fill="#cecece" transform-origin="center center"><tspan y="14px" x="47.5">Replica2
</tspan></text></g><g text-align="center" text-anchor="middle" transform="translate(1085.00, 448.37) rotate(0.00, 113.00, 74.50)"><g id="2e2dbf20-00ef-421a-051b-c818f936b58e_svg" class="tl-centered-g"><path d="M0.27,57.46 Q0.08,44.52 -0.02,36.40 T-0.21,19.72 1.56,6.94 10.32,1.60 25.17,0.29 41.32,0.11 57.80,0.16 74.37,0.26 90.97,0.38 107.57,0.46 124.17,0.43 140.78,0.36 157.38,0.28 173.98,0.21 190.59,0.13 207.22,0.06 219.69,1.91 224.90,10.95 226.10,26.36 226.18,43.15 226.02,60.30 225.98,77.55 226.08,94.82 226.18,112.10 226.27,129.41 224.44,142.30 215.69,147.69 200.89,149.06 184.80,149.29 168.38,149.30 151.86,149.25 135.33,149.18 118.79,149.16 102.25,149.24 85.70,149.37 69.16,149.50 52.62,149.63 36.08,149.76 19.51,149.88 7.07,148.07 1.83,139.02 0.55,123.53 0.38,106.66 0.43,89.42 0.38,72.08 0.17,51.75 0.10,39.88 0.24,39.48 0.49,39.14 0.84,38.90 1.25,38.79 1.67,38.81 2.07,38.97 2.39,39.24 2.61,39.60 2.70,40.02 2.65,40.44 2.48,40.82 2.19,41.13 1.81,41.33 1.40,41.40 0.98,41.33 0.60,41.13 0.31,40.83 0.13,40.44 0.09,40.02 0.18,39.61 0.40,39.25 0.72,38.97 1.11,38.81 1.53,38.79 1.94,38.90 2.29,39.14 2.55,39.48 2.68,39.88 2.72,40.09 2.66,51.74 2.54,72.07 2.60,89.40 2.87,106.60 3.35,123.29 4.43,137.94 8.25,145.56 19.55,146.69 36.07,146.76 52.61,146.83 69.16,146.90 85.70,146.97 102.24,147.04 118.79,147.06 135.33,146.98 151.86,146.85 168.36,146.70 184.74,146.49 200.62,146.07 214.58,145.03 221.91,141.13 223.14,129.35 223.37,112.09 223.59,94.81 223.82,77.54 223.86,60.30 223.69,43.19 223.30,26.58 222.30,12.01 218.51,4.42 207.16,3.25 190.58,3.13 173.98,3.01 157.38,2.88 140.77,2.76 124.17,2.63 107.57,2.56 90.96,2.58 74.37,2.66 57.81,2.76 41.37,2.91 25.42,3.27 11.42,4.26 4.08,8.11 2.92,19.76 2.79,36.40 2.66,50.99 2.57,57.60 2.51,57.87 2.38,58.11 2.19,58.32 1.97,58.48 1.71,58.58 1.43,58.61 1.15,58.58 0.89,58.48 0.66,58.33 0.48,58.12 0.35,57.87 0.28,57.60 Z" fill="#cecece" stroke="#cecece" stroke-width="2" pointer-events="none"/></g><text font-size="28px" font-family="Caveat Brush" font-weight="normal" line-height="28px" letter-spacing="-0.03em" text-align="center" dominant-baseline="mathematical" alignment-baseline="mathematical" text-anchor="middle" transform="translate(70.5, 55.5)" fill="#cecece" transform-origin="center center"><tspan y="14px" x="46.5">Replica1
</tspan></text></g><g text-align="center" text-anchor="middle" transform="translate(1085.00, 448.37) rotate(0.00, 113.00, 74.50)"><g id="a8b40c6d-808e-46ed-2a92-793b14a87251_svg" class="tl-centered-g"><path d="M88.35,-0.50 Q100.73,-0.41 108.51,-0.41 T124.45,-0.47 140.90,-0.58 157.48,-0.68 174.09,-0.79 190.71,-0.90 207.35,-1.00 219.84,0.82 225.08,9.93 226.33,25.52 226.46,42.52 226.37,59.88 226.39,77.34 226.55,94.83 226.71,112.32 226.87,129.84 225.07,142.87 216.30,148.27 201.45,149.60 185.29,149.78 168.80,149.72 152.22,149.61 135.62,149.48 119.01,149.40 102.40,149.41 85.79,149.48 69.18,149.55 52.56,149.61 35.95,149.68 19.32,149.74 6.84,147.90 1.59,138.81 0.33,123.27 0.18,106.33 0.25,89.04 0.22,71.64 0.04,54.22 -0.14,36.80 -0.31,19.35 1.47,6.36 10.24,0.95 25.10,-0.41 41.27,-0.63 57.77,-0.61 74.36,-0.54 90.98,-0.45 107.60,-0.41 124.22,-0.47 143.68,-0.58 155.04,-0.60 155.42,-0.47 155.74,-0.23 155.96,0.10 156.07,0.48 156.05,0.88 155.90,1.25 155.64,1.56 155.30,1.76 154.91,1.85 154.51,1.81 154.15,1.64 153.86,1.36 153.67,1.01 153.61,0.62 153.67,0.22 153.86,-0.13 154.15,-0.40 154.51,-0.57 154.91,-0.61 155.30,-0.53 155.64,-0.32 155.90,-0.02 156.05,0.35 156.07,0.75 155.96,1.14 155.74,1.47 155.42,1.71 155.04,1.84 154.84,1.87 143.69,1.82 124.22,1.73 107.60,1.69 90.98,1.75 74.37,1.86 57.78,1.99 41.32,2.17 25.36,2.58 11.35,3.61 4.00,7.52 2.82,19.39 2.67,36.79 2.53,54.22 2.38,71.64 2.41,89.03 2.67,106.29 3.13,123.03 4.20,137.73 8.02,145.38 19.37,146.55 35.96,146.68 52.57,146.81 69.18,146.95 85.79,147.08 102.40,147.21 119.01,147.30 135.62,147.28 152.22,147.21 168.79,147.12 185.24,146.98 201.19,146.61 215.20,145.61 222.55,141.70 223.74,129.79 223.90,112.32 224.07,94.83 224.23,77.34 224.21,59.89 223.98,42.56 223.53,25.75 222.47,11.00 218.66,3.34 207.31,2.19 190.71,2.10 174.09,2.01 157.48,1.92 140.90,1.82 124.45,1.73 108.51,1.69 94.54,1.75 88.21,1.78 87.95,1.72 87.70,1.59 87.50,1.41 87.34,1.18 87.24,0.92 87.21,0.65 87.24,0.38 87.34,0.12 87.50,-0.11 87.70,-0.29 87.95,-0.42 88.21,-0.49 Z" fill="#cecece" stroke="#cecece" stroke-width="2" pointer-events="none"/></g><text font-size="28px" font-family="Caveat Brush" font-weight="normal" line-height="28px" letter-spacing="-0.03em" text-align="center" dominant-baseline="mathematical" alignment-baseline="mathematical" text-anchor="middle" transform="translate(69.5, 55.5)" fill="#cecece" transform-origin="center center"><tspan y="14px" x="47.5">Replica3
</tspan></text></g><g text-align="center" text-anchor="middle" transform="translate(1537.00, 235.79) rotate(0.00, 82.00, 69.00)"><g id="3dc38a29-d568-4762-035f-6d80dcc219bf_svg" class="tl-centered-g"><path d="M-0.26,42.10 Q-0.33,28.44 -0.35,19.86 T1.51,7.06 10.45,1.70 25.64,0.35 42.17,0.11 59.05,0.10 76.02,0.08 93.01,-0.07 110.01,-0.29 127.02,-0.51 144.04,-0.73 156.77,1.04 162.07,10.43 163.31,26.67 163.43,44.42 163.42,62.56 163.53,80.80 163.73,99.07 163.91,117.37 162.13,130.88 153.18,136.44 137.90,137.88 121.25,138.16 104.26,138.20 87.17,138.26 70.06,138.45 52.94,138.70 35.82,138.96 18.68,139.21 5.86,137.45 0.60,128.04 -0.51,111.77 -0.49,93.99 -0.32,75.81 -0.29,57.52 -0.30,36.07 -0.26,23.54 -0.10,23.10 0.18,22.73 0.57,22.47 1.02,22.35 1.49,22.38 1.92,22.55 2.28,22.86 2.51,23.26 2.61,23.72 2.56,24.18 2.36,24.60 2.03,24.94 1.62,25.16 1.16,25.23 0.70,25.15 0.28,24.93 -0.03,24.59 -0.23,24.16 -0.27,23.69 -0.17,23.24 0.07,22.84 0.43,22.54 0.87,22.37 1.34,22.35 1.79,22.48 2.17,22.74 2.45,23.12 2.60,23.56 2.63,23.80 2.44,36.09 2.08,57.54 1.86,75.81 1.88,93.96 2.22,111.57 3.20,127.02 7.04,134.97 18.70,136.06 35.80,136.09 52.92,136.13 70.04,136.16 87.15,136.12 104.23,135.92 121.19,135.58 137.63,135.03 152.07,133.84 159.60,129.73 160.80,117.32 160.98,99.07 161.16,80.80 161.23,62.56 161.06,44.46 160.58,26.90 159.48,11.48 155.60,3.54 144.01,2.42 127.03,2.36 110.02,2.29 93.02,2.22 76.03,2.23 59.07,2.39 42.23,2.69 25.90,3.20 11.56,4.32 4.04,8.24 2.75,19.93 2.45,35.29 2.28,42.27 2.20,42.57 2.06,42.84 1.85,43.06 1.60,43.24 1.31,43.34 1.01,43.38 0.70,43.34 0.42,43.23 0.17,43.05 -0.03,42.82 -0.17,42.55 -0.24,42.25 Z" fill="#cecece" stroke="#cecece" stroke-width="2" pointer-events="none"/></g><text font-size="28px" font-family="Caveat Brush" font-weight="normal" line-height="28px" letter-spacing="-0.03em" text-align="center" dominant-baseline="mathematical" alignment-baseline="mathematical" text-anchor="middle" transform="translate(49.5, 50)" fill="#cecece" transform-origin="center center"><tspan y="14px" x="36.5">Origin
</tspan></text></g><g text-align="center" text-anchor="middle" transform="translate(239.26, 199.48) rotate(0.00, 154.87, 25.95)"><g id="2703f578-c545-4dc5-14d9-ba11a174b7e8_svg" class="tl-centered-g"><defs><mask id="2703f578-c545-4dc5-14d9-ba11a174b7e8_clip"><rect x="-100" y="-100" width="509.74" height="251.89" fill="white"/><rect x="93.37" y="6.94" width="123" height="38" rx="4" ry="4" fill="black" opacity="1"/></mask></defs><g pointer-events="none" opacity="1" mask="url(#2703f578-c545-4dc5-14d9-ba11a174b7e8_clip)"><path d="M-0.15,50.99 Q76.80,38.18 115.28,31.76 T192.23,18.92 269.18,6.06 307.77,-0.37 307.99,-0.33 308.19,-0.23 308.34,-0.06 308.44,0.14 308.46,0.37 308.42,0.59 308.30,0.78 308.13,0.93 307.92,1.01 307.69,1.02 307.48,0.96 307.29,0.84 307.15,0.66 307.08,0.45 307.08,0.22 307.15,0.01 307.29,-0.17 307.47,-0.30 307.69,-0.36 307.91,-0.35 308.12,-0.27 308.30,-0.12 308.41,0.07 308.46,0.29 308.44,0.51 308.34,0.72 308.19,0.88 307.99,0.99 307.88,1.03 269.42,7.49 192.48,20.41 115.55,33.35 38.61,46.30 0.04,52.79 -0.18,52.78 -0.38,52.71 -0.57,52.59 -0.72,52.44 -0.83,52.25 -0.89,52.04 -0.90,51.82 -0.86,51.61 -0.77,51.41 -0.63,51.24 -0.46,51.11 -0.26,51.02 Z" fill="#cecece" stroke="#cecece" stroke-width="2.11" stroke-dasharray="none" stroke-dashoffset="none" stroke-linecap="round" stroke-linejoin="round" pointer-events="stroke"/><g><path d="M 294.75,-5.600621144276377 L 309.74,0 297.39,10.179473019998962" fill="none" stroke="#cecece" stroke-width="4.23" stroke-linecap="round" stroke-linejoin="round" pointer-events="none"/></g></g></g><text font-size="28px" font-family="Caveat Brush" font-weight="normal" line-height="28px" letter-spacing="-0.03em" text-align="left" dominant-baseline="mathematical" alignment-baseline="mathematical" text-anchor="start" transform="translate(93.37, 6.94)" fill="#cecece" transform-origin="center center"><tspan y="14px" x="4">DNS request
</tspan></text></g><g text-align="center" text-anchor="middle" transform="translate(258.00, 239.07) rotate(0.00, 153.50, 26.59)"><g id="85883e35-3d4b-4578-02a6-5422e78eb759_svg" class="tl-centered-g"><defs><mask id="85883e35-3d4b-4578-02a6-5422e78eb759_clip"><rect x="-100" y="-100" width="507" height="253.17" fill="white"/><rect x="92" y="7.58" width="123" height="38" rx="4" ry="4" fill="black" opacity="1"/></mask></defs><g pointer-events="none" opacity="1" mask="url(#85883e35-3d4b-4578-02a6-5422e78eb759_clip)"><path d="M307.15,0.84 Q230.87,13.97 192.74,20.54 T116.47,33.69 40.21,46.86 1.98,53.45 1.78,53.42 1.60,53.33 1.46,53.18 1.37,53.00 1.35,52.80 1.39,52.60 1.49,52.43 1.65,52.30 1.83,52.22 2.03,52.21 2.23,52.26 2.39,52.37 2.52,52.53 2.58,52.72 2.58,52.92 2.52,53.11 2.40,53.27 2.24,53.39 2.04,53.44 1.84,53.44 1.66,53.36 1.50,53.23 1.40,53.06 1.35,52.87 1.37,52.67 1.45,52.49 1.59,52.34 1.77,52.24 1.86,52.21 39.99,45.59 116.24,32.34 192.49,19.08 268.73,5.80 306.96,-0.85 307.16,-0.83 307.36,-0.77 307.53,-0.66 307.67,-0.52 307.78,-0.34 307.84,-0.14 307.85,0.06 307.81,0.26 307.72,0.45 307.59,0.61 307.43,0.73 307.24,0.81 Z" fill="#cecece" stroke="#cecece" stroke-width="2.11" stroke-dasharray="none" stroke-dashoffset="none" stroke-linecap="round" stroke-linejoin="round" pointer-events="stroke"/><g><path d="M 15.01,58.688032028551135 L 0,53.17 12.28,42.92272938438336" fill="none" stroke="#cecece" stroke-width="4.23" stroke-linecap="round" stroke-linejoin="round" pointer-events="none"/></g></g></g><text font-size="28px" font-family="Caveat Brush" font-weight="normal" line-height="28px" letter-spacing="-0.03em" text-align="left" dominant-baseline="mathematical" alignment-baseline="mathematical" text-anchor="start" transform="translate(92, 7.59)" fill="#cecece" transform-origin="center center"><tspan y="14px" x="4">Ip&lt;Replica&gt;
</tspan></text></g><g id="cd525115-7460-471e-166e-f98eced4f0dc_svg" class="tl-centered-g" transform="translate(1021.20, 16.00) rotate(0.00, 469.00, 338.00)"><path d="M851.13,676.56 Q839.00,676.53 831.39,676.51 T815.78,676.48 799.67,676.44 783.43,676.40 767.16,676.37 750.88,676.33 734.60,676.29 718.32,676.26 702.04,676.22 685.76,676.18 669.48,676.15 653.20,676.11 636.92,676.07 620.64,676.04 604.35,676.00 588.07,675.96 571.79,675.93 555.51,675.89 539.23,675.85 522.95,675.82 506.67,675.78 490.39,675.74 474.11,675.72 457.83,675.72 441.55,675.73 425.27,675.74 408.99,675.74 392.71,675.75 376.42,675.76 360.14,675.77 343.86,675.78 327.58,675.79 311.30,675.80 295.02,675.81 278.74,675.82 262.46,675.83 246.18,675.84 229.90,675.84 213.62,675.85 197.34,675.86 181.06,675.87 164.78,675.88 148.49,675.89 132.21,675.90 115.93,675.91 99.65,675.92 83.37,675.93 67.09,675.93 50.81,675.94 34.53,675.95 18.22,675.96 5.96,674.09 0.71,665.47 -0.65,650.93 -0.90,635.14 -0.93,619.03 -0.90,602.83 -0.86,586.61 -0.82,570.38 -0.77,554.16 -0.73,537.93 -0.68,521.70 -0.63,505.47 -0.59,489.25 -0.54,473.02 -0.50,456.79 -0.45,440.56 -0.40,424.34 -0.36,408.11 -0.31,391.88 -0.27,375.65 -0.22,359.43 -0.19,343.20 -0.19,326.97 -0.21,310.74 -0.23,294.52 -0.24,278.29 -0.26,262.06 -0.28,245.83 -0.30,229.60 -0.31,213.38 -0.33,197.15 -0.35,180.92 -0.37,164.69 -0.38,148.47 -0.40,132.24 -0.42,116.01 -0.44,99.78 -0.45,83.56 -0.47,67.33 -0.49,51.10 -0.51,34.87 -0.52,18.62 1.34,6.39 9.99,1.14 24.56,-0.23 40.39,-0.50 56.55,-0.54 72.80,-0.53 89.06,-0.51 105.34,-0.48 121.61,-0.45 137.88,-0.42 154.16,-0.39 170.43,-0.36 186.71,-0.32 202.98,-0.29 219.25,-0.26 235.53,-0.23 251.80,-0.20 268.08,-0.17 284.35,-0.14 300.62,-0.11 316.90,-0.08 333.17,-0.05 349.45,-0.02 365.72,0.01 381.99,0.04 398.27,0.07 414.54,0.10 430.82,0.13 447.09,0.16 463.37,0.18 479.64,0.18 495.91,0.16 512.19,0.15 528.46,0.13 544.74,0.12 561.01,0.10 577.28,0.09 593.56,0.07 609.83,0.05 626.11,0.04 642.38,0.02 658.65,0.01 674.93,-0.01 691.20,-0.02 707.48,-0.04 723.75,-0.05 740.03,-0.07 756.30,-0.08 772.57,-0.10 788.85,-0.11 805.12,-0.13 821.40,-0.14 837.67,-0.16 853.94,-0.17 870.22,-0.19 886.49,-0.20 902.77,-0.22 919.07,-0.23 931.33,1.63 936.58,10.26 937.95,24.80 938.21,40.60 938.25,56.72 938.23,72.93 938.20,89.16 938.16,105.39 938.12,121.63 938.09,137.86 938.05,154.10 938.01,170.33 937.98,186.57 937.94,202.81 937.90,219.04 937.87,235.28 937.83,251.51 937.79,267.75 937.75,283.99 937.72,300.22 937.68,316.46 937.66,332.70 937.67,348.93 937.70,365.17 937.72,381.40 937.75,397.64 937.78,413.88 937.80,430.11 937.83,446.35 937.86,462.59 937.88,478.82 937.91,495.06 937.94,511.29 937.96,527.53 937.99,543.77 938.02,560.00 938.04,576.24 938.07,592.48 938.10,608.71 938.12,624.95 938.15,641.18 938.17,657.45 936.31,669.69 927.67,674.93 913.10,676.30 897.25,676.56 881.09,676.60 864.84,676.58 848.56,676.55 832.28,676.51 816.00,676.48 799.72,676.44 783.44,676.40 767.16,676.37 750.88,676.33 734.60,676.29 718.32,676.26 702.04,676.22 685.76,676.18 669.48,676.15 653.20,676.11 636.92,676.07 620.64,676.04 604.35,676.00 588.07,675.96 571.79,675.93 555.51,675.89 539.23,675.85 522.95,675.82 506.67,675.78 490.39,675.74 474.11,675.72 457.83,675.72 438.76,675.72 427.67,675.70 427.35,675.59 427.08,675.39 426.89,675.11 426.80,674.78 426.82,674.44 426.94,674.13 427.16,673.87 427.45,673.70 427.78,673.63 428.12,673.66 428.42,673.81 428.67,674.04 428.82,674.34 428.88,674.67 428.82,675.00 428.67,675.30 428.42,675.53 428.11,675.67 427.78,675.71 427.45,675.64 427.16,675.46 426.94,675.21 426.82,674.89 426.80,674.56 426.89,674.23 427.08,673.95 427.35,673.75 427.67,673.64 427.84,673.61 438.76,673.63 457.83,673.67 474.11,673.70 490.39,673.70 506.67,673.69 522.95,673.68 539.23,673.67 555.51,673.66 571.80,673.65 588.08,673.64 604.36,673.64 620.64,673.63 636.92,673.62 653.20,673.61 669.48,673.60 685.76,673.59 702.04,673.58 718.32,673.57 734.60,673.56 750.88,673.55 767.16,673.55 783.44,673.54 799.73,673.53 816.01,673.52 832.29,673.51 848.56,673.50 864.83,673.48 881.07,673.46 897.19,673.37 912.83,673.08 926.56,672.19 933.78,668.51 934.91,657.39 934.94,641.18 934.98,624.95 935.02,608.71 935.06,592.47 935.09,576.24 935.13,560.00 935.17,543.77 935.20,527.53 935.24,511.29 935.28,495.06 935.31,478.82 935.35,462.58 935.39,446.35 935.42,430.11 935.46,413.88 935.50,397.64 935.53,381.40 935.57,365.17 935.61,348.93 935.63,332.70 935.62,316.46 935.59,300.22 935.56,283.99 935.54,267.75 935.51,251.51 935.48,235.28 935.46,219.04 935.43,202.81 935.41,186.57 935.38,170.33 935.35,154.10 935.33,137.86 935.30,121.62 935.27,105.39 935.24,89.16 935.21,72.93 935.17,56.73 935.07,40.66 934.76,25.07 933.85,11.38 930.16,4.16 919.01,3.04 902.77,3.01 886.49,2.98 870.22,2.95 853.94,2.92 837.67,2.89 821.39,2.86 805.12,2.83 788.85,2.80 772.57,2.77 756.30,2.74 740.02,2.71 723.75,2.68 707.48,2.65 691.20,2.62 674.93,2.59 658.65,2.56 642.38,2.53 626.11,2.50 609.83,2.47 593.56,2.43 577.28,2.40 561.01,2.37 544.74,2.34 528.46,2.31 512.19,2.28 495.91,2.25 479.64,2.22 463.36,2.20 447.09,2.21 430.82,2.22 414.54,2.24 398.27,2.25 381.99,2.27 365.72,2.28 349.45,2.30 333.17,2.31 316.90,2.33 300.62,2.34 284.35,2.36 268.07,2.37 251.80,2.39 235.53,2.40 219.25,2.42 202.98,2.44 186.70,2.45 170.43,2.47 154.16,2.48 137.88,2.50 121.61,2.51 105.33,2.53 89.06,2.54 72.80,2.56 56.57,2.60 40.45,2.69 24.83,2.98 11.10,3.88 3.87,7.56 2.74,18.67 2.70,34.88 2.65,51.10 2.61,67.33 2.56,83.56 2.52,99.79 2.47,116.01 2.42,132.24 2.38,148.47 2.33,164.70 2.29,180.92 2.24,197.15 2.19,213.38 2.15,229.61 2.10,245.83 2.06,262.06 2.01,278.29 1.96,294.52 1.92,310.75 1.87,326.97 1.84,343.20 1.84,359.43 1.86,375.66 1.88,391.88 1.89,408.11 1.91,424.34 1.93,440.57 1.95,456.79 1.96,473.02 1.98,489.25 2.00,505.48 2.02,521.70 2.03,537.93 2.05,554.16 2.07,570.39 2.09,586.61 2.11,602.83 2.15,619.02 2.24,635.08 2.54,650.66 3.44,664.35 7.13,671.56 18.28,672.69 34.53,672.72 50.81,672.76 67.09,672.79 83.37,672.83 99.65,672.87 115.94,672.90 132.22,672.94 148.50,672.98 164.78,673.01 181.06,673.05 197.34,673.09 213.62,673.12 229.90,673.16 246.18,673.20 262.46,673.23 278.74,673.27 295.02,673.31 311.30,673.34 327.58,673.38 343.87,673.42 360.15,673.45 376.43,673.49 392.71,673.53 408.99,673.56 425.27,673.60 441.55,673.64 457.83,673.67 474.11,673.70 490.39,673.70 506.67,673.69 522.95,673.68 539.23,673.67 555.51,673.66 571.80,673.65 588.08,673.64 604.36,673.64 620.64,673.63 636.92,673.62 653.20,673.61 669.48,673.60 685.76,673.59 702.04,673.58 718.32,673.57 734.60,673.56 750.88,673.55 767.16,673.55 783.43,673.54 799.67,673.53 815.78,673.52 831.40,673.51 845.07,673.50 851.32,673.51 851.68,673.60 852.00,673.77 852.28,674.02 852.49,674.32 852.62,674.66 852.66,675.03 852.61,675.39 852.48,675.74 852.27,676.04 852.00,676.28 851.67,676.45 851.32,676.54 Z" fill="#cecece" stroke="#cecece" stroke-width="2" pointer-events="none"/></g><g text-align="center" text-anchor="middle" transform="translate(791.00, 159.75) rotate(0.00, 107.10, 1.56)"><g id="0c2357a0-ccd0-41d7-05be-3d240d44487a_svg" class="tl-centered-g"><defs><mask id="0c2357a0-ccd0-41d7-05be-3d240d44487a_clip"><rect x="-100" y="-100" width="414.2" height="203.12" fill="white"/><rect x="72.6" y="-17.44" width="69" height="38" rx="4" ry="4" fill="black" opacity="1"/></mask></defs><g pointer-events="none" opacity="1" mask="url(#0c2357a0-ccd0-41d7-05be-3d240d44487a_clip)"><path d="M0.01,-0.89 Q53.06,-0.04 79.59,0.37 T132.64,1.20 185.69,2.01 212.32,2.43 212.52,2.50 212.70,2.63 212.82,2.82 212.87,3.03 212.86,3.25 212.77,3.45 212.63,3.61 212.44,3.72 212.23,3.76 212.01,3.74 211.81,3.64 211.66,3.49 211.56,3.30 211.53,3.08 211.57,2.87 211.67,2.68 211.83,2.53 212.03,2.44 212.25,2.42 212.46,2.47 212.64,2.58 212.78,2.75 212.86,2.96 212.87,3.17 212.81,3.38 212.68,3.56 212.51,3.69 212.30,3.76 212.19,3.77 185.67,3.40 132.61,2.67 79.56,1.94 26.51,1.24 -0.12,0.88 -0.33,0.82 -0.51,0.72 -0.67,0.58 -0.79,0.40 -0.86,0.20 -0.89,-0.01 -0.86,-0.22 -0.78,-0.42 -0.65,-0.60 -0.49,-0.74 -0.30,-0.83 -0.09,-0.88 Z" fill="#cecece" stroke="#cecece" stroke-width="2.11" stroke-dasharray="none" stroke-dashoffset="none" stroke-linecap="round" stroke-linejoin="round" pointer-events="stroke"/><g><path d="M 200.46,-5.080960084844938 L 214.2,3.12 200.22,10.917342878813379" fill="none" stroke="#cecece" stroke-width="4.23" stroke-linecap="round" stroke-linejoin="round" pointer-events="none"/></g></g></g><text font-size="28px" font-family="Caveat Brush" font-weight="normal" line-height="28px" letter-spacing="-0.03em" text-align="left" dominant-baseline="mathematical" alignment-baseline="mathematical" text-anchor="start" transform="translate(72.6, -17.44)" fill="#cecece" transform-origin="center center"><tspan y="14px" x="4">Tracks
</tspan></text></g><g text-align="center" text-anchor="middle" transform="translate(258.00, 405.11) rotate(0.00, 373.60, 50.26)"><g id="97c8b744-da73-45ad-176f-44a421369934_svg" class="tl-centered-g"><defs><mask id="97c8b744-da73-45ad-176f-44a421369934_clip"><rect x="-100" y="-100" width="947.2" height="300.52" fill="white"/><rect x="262.1" y="31.25" width="223" height="38" rx="4" ry="4" fill="black" opacity="1"/></mask></defs><g pointer-events="none" opacity="1" mask="url(#97c8b744-da73-45ad-176f-44a421369934_clip)"><path d="M2.12,-0.77 Q187.92,24.29 280.82,36.81 T466.63,61.84 652.43,86.86 745.47,99.41 745.73,99.54 745.93,99.74 746.06,99.99 746.10,100.28 746.04,100.55 745.90,100.80 745.69,100.99 745.43,101.10 745.15,101.13 744.87,101.06 744.63,100.91 744.45,100.69 744.36,100.42 744.35,100.14 744.43,99.86 744.60,99.63 744.83,99.47 745.10,99.38 745.38,99.39 745.65,99.49 745.87,99.67 746.02,99.91 746.09,100.18 746.07,100.46 745.96,100.72 745.77,100.94 745.52,101.08 745.24,101.13 745.10,101.13 652.19,88.65 466.38,63.68 280.57,38.72 94.75,13.77 1.72,1.27 1.49,1.18 1.29,1.03 1.12,0.84 1.01,0.62 0.95,0.38 0.96,0.13 1.02,-0.11 1.14,-0.33 1.31,-0.52 1.51,-0.66 1.75,-0.74 2.00,-0.77 Z" fill="#cecece" stroke="#cecece" stroke-width="2.11" stroke-dasharray="none" stroke-dashoffset="none" stroke-linecap="round" stroke-linejoin="round" pointer-events="stroke"/><g><path d="M 12.66,9.77602055809271 L 0,0 14.79,-6.0811312796997745" fill="none" stroke="#cecece" stroke-width="4.23" stroke-linecap="round" stroke-linejoin="round" pointer-events="none"/></g><g><path d="M 734.53,90.7439794419073 L 747.2,100.52 732.40,106.60113127969976" fill="none" stroke="#cecece" stroke-width="4.23" stroke-linecap="round" stroke-linejoin="round" pointer-events="none"/></g></g></g><text font-size="28px" font-family="Caveat Brush" font-weight="normal" line-height="28px" letter-spacing="-0.03em" text-align="left" dominant-baseline="mathematical" alignment-baseline="mathematical" text-anchor="start" transform="translate(262.1, 31.25)" fill="#cecece" transform-origin="center center"><tspan y="14px" x="4">GET Request / Response
</tspan></text></g><g text-align="center" text-anchor="middle" transform="translate(1310.00, 315.89) rotate(0.00, 105.50, 0.50)"><g id="c1caf862-2052-4683-3a90-631218446fdc_svg" class="tl-centered-g"><defs><mask id="c1caf862-2052-4683-3a90-631218446fdc_clip"><rect x="-100" y="-100" width="411" height="201" fill="white"/><rect x="51" y="-18.79" width="109" height="38" rx="4" ry="4" fill="black" opacity="1"/></mask></defs><g pointer-events="none" opacity="1" mask="url(#c1caf862-2052-4683-3a90-631218446fdc_clip)"><path d="M-0.00,-0.54 Q52.25,-0.58 78.37,-0.60 T130.62,-0.66 182.87,-0.73 209.12,-0.74 209.35,-0.67 209.55,-0.52 209.69,-0.32 209.75,-0.08 209.74,0.17 209.65,0.39 209.49,0.58 209.28,0.71 209.04,0.76 208.80,0.73 208.58,0.63 208.40,0.46 208.28,0.25 208.24,0.01 208.28,-0.24 208.40,-0.45 208.57,-0.62 208.80,-0.73 209.04,-0.75 209.28,-0.70 209.49,-0.57 209.65,-0.39 209.74,-0.16 209.75,0.08 209.69,0.32 209.55,0.52 209.36,0.67 209.12,0.75 209.00,0.77 182.88,0.84 130.63,0.97 78.38,1.12 26.13,1.28 -0.11,1.35 -0.33,1.30 -0.54,1.19 -0.71,1.04 -0.84,0.85 -0.92,0.64 -0.95,0.41 -0.92,0.19 -0.84,-0.03 -0.71,-0.22 -0.54,-0.37 -0.34,-0.48 -0.12,-0.53 Z" fill="#cecece" stroke="#cecece" stroke-width="2.11" stroke-dasharray="none" stroke-dashoffset="none" stroke-linecap="round" stroke-linejoin="round" pointer-events="stroke"/><g><path d="M 197.12,-7.973060177040549 L 211,0 197.15,8.026909617074766" fill="none" stroke="#cecece" stroke-width="4.23" stroke-linecap="round" stroke-linejoin="round" pointer-events="none"/></g></g></g><text font-size="28px" font-family="Caveat Brush" font-weight="normal" line-height="28px" letter-spacing="-0.03em" text-align="left" dominant-baseline="mathematical" alignment-baseline="mathematical" text-anchor="start" transform="translate(51, -18.79)" fill="#cecece" transform-origin="center center"><tspan y="14px" x="4">Cache Miss
</tspan></text></g><g><g id="7637381e-ae34-44a7-2735-d6a284bb92ad_svg" class="tl-centered-g" transform="translate(1378.78, 106.46) rotate(0.00, 122.00, 27.00)"><rect x="2.11" y="2.11" width="241.88" height="51.88" fill="#594d42" pointer-events="none"/><g pointer-events="none" stroke="#eb8b35" stroke-width="4.23" stroke-linecap="round"><line x1="2.11" y1="2.11" x2="241.88" y2="2.11" stroke-dasharray="none" stroke-dashoffset="none"/><line x1="241.88" y1="2.11" x2="241.88" y2="51.88" stroke-dasharray="none" stroke-dashoffset="none"/><line x1="241.88" y1="51.88" x2="2.11" y2="51.88" stroke-dasharray="none" stroke-dashoffset="none"/><line x1="2.11" y1="51.88" x2="2.11" y2="2.11" stroke-dasharray="none" stroke-dashoffset="none"/></g></g><text font-size="28px" font-family="Caveat Brush" font-weight="normal" line-height="28px" letter-spacing="-0.03em" text-align="left" dominant-baseline="mathematical" alignment-baseline="mathematical" text-anchor="start" fill="#cecece" transform="translate(1390.28, 114.46) rotate(0.00, 114.00, 19.00)"><tspan y="14px" x="4">20 MB Cache per replica
</tspan></text></g><g id="9ddd9122-e80c-4721-31fd-deb3cf1866c4_svg" class="tl-centered-g" transform="translate(1328.00, 134.37) rotate(0.00, 25.39, 0.50)"><defs><mask id="9ddd9122-e80c-4721-31fd-deb3cf1866c4_clip"><rect x="-100" y="-100" width="250.78" height="201" fill="white"/><rect x="25.39" y="0.2" width="0" height="0" rx="2" ry="2" fill="black" opacity="1"/></mask></defs><g pointer-events="none" opacity="1" mask=""><path d="M50.78,0L0,0.39" fill="#eb8b35" stroke="#eb8b35" stroke-width="4.23" stroke-dasharray="none" stroke-dashoffset="none" stroke-linecap="round" stroke-linejoin="round" pointer-events="stroke"/><g><path d="M 13.91,8.283347386503904 L 0,0.39 13.79,-7.716180751939819" fill="none" stroke="#eb8b35" stroke-width="4.23" stroke-linecap="round" stroke-linejoin="round" pointer-events="none"/></g></g></g></svg>